<svg xmlns="http://www.w3.org/2000/svg" shape-rendering="crispEdges" viewBox="0 -0.5 16 15"><path stroke="#3e3b6a" d="M5 1h7M4 2h1m7 0h1M2 3h2m9 0h1M1 4h1m12 0h1m-1 1h1m-1 1h1m0 1h1m-1 1h1m-1 1h1M6 12h3m-4 1h2m-3 1h1"/><path stroke="#aecdcd" d="M5 2h3M5 3h3M7 4h2M6 5h3M6 6h5M6 7h6m1 0h2M7 8h2m2 0h2m1 0h1M7 9h2m2 0h2m1 0h1m-7 1h3m3 0h1m-7 1h2m4 0h1m-2 1h2m-1 1h2m-3 1h2"/><path stroke="#cce0de" d="M8 2h4M8 3h2m3 1h1M9 5h1m3 0h1m-1 1h1m-2 1h1m-2 3h1m3 0h1m-6 1h1m-2 1h1m5 2h1"/><path stroke="#322a51" d="M4 3h1M1 5h1M1 6h1m0 1h1M2 8h1m2 0h1m4 0h1M2 9h1m1 0h2m3 0h1m-8 1h1m0 1h1m0 1h1m-1 1h1m2 0h2"/><path stroke="#505983" d="M10 3h3M9 4h1m2 0h1m-1 1h1m-1 1h1m-3 3h1m2 0h1m-2 1h1m-2 1h1m-2 1h1m-2 1h1"/><path stroke="#718ca2" d="M2 4h2m6 0h2M2 5h1M2 6h1m1 2h1m8 0h1m-8 6h4"/><path stroke="#5d718f" d="M4 4h1M3 5h1"/><path stroke="#98b5bb" d="M5 4h2m3 1h1m0 1h1M6 8h1m2 0h1M6 9h1m-1 1h2m5 0h1m-7 1h1m4 0h2m1 0h1M5 12h1m5 0h2m2 0h1m-3 1h1m-9 1h1m6 0h1"/><path stroke="#87aab4" d="M4 5h2m5 0h1M3 6h3M3 7h3M3 8h1M3 9h1m-1 1h3m-2 1h3m3 2h3m-3 1h2"/></svg>